<svg width="20" height="20" viewBox="0 0 20 20" fill="none" xmlns="http://www.w3.org/2000/svg">
<path fill-rule="evenodd" clip-rule="evenodd" d="M10 20C11.3132 20 12.6136 19.7413 13.8268 19.2388C15.0401 18.7362 16.1425 17.9997 17.0711 17.0711C17.9997 16.1425 18.7362 15.0401 19.2388 13.8268C19.7413 12.6136 20 11.3132 20 10C20 8.68678 19.7413 7.38642 19.2388 6.17316C18.7362 4.95991 17.9997 3.85752 17.0711 2.92893C16.1425 2.00035 15.0401 1.26375 13.8268 0.761204C12.6136 0.258658 11.3132 -1.95685e-08 10 0C7.34784 3.95203e-08 4.8043 1.05357 2.92893 2.92893C1.05357 4.8043 0 7.34783 0 10C0 12.6522 1.05357 15.1957 2.92893 17.0711C4.8043 18.9464 7.34784 20 10 20ZM9.74222 14.0444L14.5866 8.23115C14.9794 7.75985 14.9157 7.05939 14.4444 6.66663C13.9731 6.2739 13.2727 6.33754 12.88 6.80878L8.81333 11.6878L7.12658 10.0003C6.69281 9.5663 5.98934 9.56622 5.55547 10.0001C5.12167 10.4339 5.12167 11.1372 5.55547 11.571L8.10333 14.1189L8.96333 14.9789L9.74222 14.0444Z" fill="url(#paint0_linear_78_1192)"/>
<defs>
<linearGradient id="paint0_linear_78_1192" x1="10" y1="0" x2="10" y2="20" gradientUnits="userSpaceOnUse">
<stop stop-color="#3ACE61"/>
<stop offset="1" stop-color="#008122"/>
</linearGradient>
</defs>
</svg>
