<svg width="18" height="18" viewBox="0 0 18 18" fill="none" xmlns="http://www.w3.org/2000/svg">
<g clip-path="url(#clip0_78_1240)">
<path d="M9 0C4.02947 0 0 4.02947 0 9C0 13.9708 4.02947 18 9 18C13.9708 18 18 13.9708 18 9C18 4.02947 13.9708 0 9 0ZM9 16.8927C4.65778 16.8927 1.125 13.3422 1.125 8.99996C1.125 4.65775 4.65778 1.12496 9 1.12496C13.3422 1.12496 16.875 4.65776 16.875 8.99996C16.875 13.3422 13.3422 16.8927 9 16.8927ZM12.1818 5.81822C11.9621 5.59856 11.6061 5.59856 11.3864 5.81822L9 8.20463L6.61359 5.81822C6.39394 5.59856 6.03788 5.59856 5.81794 5.81822C5.59828 6.03788 5.59828 6.39394 5.81794 6.61359L8.20434 9L5.81794 11.3864C5.59828 11.6058 5.59828 11.9624 5.81794 12.1818C6.03759 12.4015 6.39366 12.4015 6.61359 12.1818L9 9.79539L11.3864 12.1818C11.6061 12.4015 11.9621 12.4015 12.1818 12.1818C12.4014 11.9624 12.4014 11.6058 12.1818 11.3864L9.79537 9L12.1818 6.61359C12.4017 6.39366 12.4017 6.03759 12.1818 5.81822Z" fill="white" fill-opacity="0.5"/>
</g>
<defs>
<clipPath id="clip0_78_1240">
<rect width="18" height="18" fill="white"/>
</clipPath>
</defs>
</svg>
