<svg viewBox="0 0 61.9609 61.9601" xmlns="http://www.w3.org/2000/svg" xmlns:xlink="http://www.w3.org/1999/xlink" width="61.960938" height="61.960083" fill="none" customFrame="#000000">
	<defs>
		<g id="pixso_custom_effect_34">
			<effect x="0.000000" y="4.000000" visibility="visible" fill="rgb(255,255,255)" fill-opacity="0.449999988" effectType="innerShadow" stdDeviation="5.80000019" radius="0" />
			<effect x="0.000000" y="7.000000" visibility="visible" fill="rgb(0,0,0)" fill-opacity="0.25" effectType="dropShadow" stdDeviation="8.89999962" radius="0" />
		</g>
		<filter id="filter_34" width="61.960938" height="61.960083" x="0.000000" y="0.000000" filterUnits="userSpaceOnUse" customEffect="url(#pixso_custom_effect_34)" color-interpolation-filters="sRGB">
			<feFlood flood-opacity="0" result="BackgroundImageFix" />
			<feOffset dx="0.000000" dy="7.000000" in="SourceAlpha" />
			<feGaussianBlur stdDeviation="2.96666646" />
			<feColorMatrix type="matrix" values="0 0 0 0 0 0 0 0 0 0 0 0 0 0 0 0 0 0 0.25 0 " />
			<feBlend result="effect_dropShadow_1" in2="BackgroundImageFix" mode="normal" />
			<feBlend result="shape" in="SourceGraphic" in2="effect_dropShadow_1" mode="normal" />
			<feOffset dx="0.000000" dy="4.000000" in="SourceAlpha" />
			<feGaussianBlur stdDeviation="1.9333334" />
			<feComposite k2="-1" k3="1" in2="SourceAlpha" operator="arithmetic" />
			<feColorMatrix type="matrix" values="0 0 0 0 1 0 0 0 0 1 0 0 0 0 1 0 0 0 0.45 0 " />
			<feBlend result="effect_innerShadow_2" in2="shape" mode="normal" />
		</filter>
		<linearGradient id="paint_linear_11" x1="31.71031" x2="31.71031" y1="-7.07009888" y2="41.2299004" gradientUnits="userSpaceOnUse">
			<stop stop-color="rgb(70.6154,242.708,255)" offset="0" stop-opacity="1" />
			<stop stop-color="rgb(0,180.412,208.168)" offset="0.831730783" stop-opacity="1" />
		</linearGradient>
	</defs>
	<g filter="url(#filter_34)">
		<path id="Vector" d="M37.8804 23.9799C37.8804 25.8099 37.1534 27.5649 35.8594 28.8589C34.5654 30.1529 32.8104 30.8799 30.9804 30.8799C29.1504 30.8799 27.3954 30.1529 26.1014 28.8589C24.8074 27.5649 24.0804 25.8099 24.0804 23.9799C24.0819 23.5858 24.1195 23.2025 24.1931 22.8299L21.7804 22.8299L21.7804 32.023C21.7804 32.6624 22.2979 33.1799 22.9373 33.1799L39.0258 33.1799C39.3322 33.1793 39.6259 33.0571 39.8424 32.8402C40.0588 32.6234 40.1804 32.3294 40.1804 32.023L40.1804 22.8299L37.7677 22.8299C37.8413 23.2025 37.8789 23.5858 37.8804 23.9799ZM30.9804 28.5799C31.5846 28.5798 32.1829 28.4606 32.7411 28.2292C33.2993 27.9979 33.8064 27.6588 34.2336 27.2314C34.6607 26.8041 34.9995 26.2968 35.2306 25.7385C35.4617 25.1802 35.5805 24.5818 35.5804 23.9776C35.5802 23.3734 35.4611 22.7751 35.2297 22.2169C34.9983 21.6587 34.6593 21.1516 34.2319 20.7244C33.8046 20.2973 33.2973 19.9585 32.739 19.7274C32.1807 19.4963 31.5823 19.3775 30.9781 19.3776C29.7578 19.3779 28.5876 19.863 27.7249 20.7261C26.8623 21.5892 26.3778 22.7596 26.3781 23.9799C26.3784 25.2002 26.8635 26.3704 27.7266 27.2331C28.5896 28.0957 29.7601 28.5802 30.9804 28.5799ZM36.5004 19.1499L39.2581 19.1499C39.3489 19.1502 39.4389 19.1326 39.5229 19.098C39.6068 19.0635 39.6832 19.0127 39.7475 18.9486C39.8118 18.8845 39.8628 18.8084 39.8977 18.7245C39.9325 18.6406 39.9504 18.5507 39.9504 18.4599L39.9504 15.7022C39.9507 15.6112 39.933 15.521 39.8983 15.4369C39.8636 15.3528 39.8126 15.2763 39.7483 15.212C39.684 15.1476 39.6075 15.0967 39.5234 15.062C39.4393 15.0273 39.3491 15.0096 39.2581 15.0099L36.5004 15.0099C36.4094 15.0096 36.3192 15.0273 36.2351 15.062C36.151 15.0967 36.0745 15.1476 36.0102 15.212C35.9458 15.2763 35.8949 15.3528 35.8602 15.4369C35.8255 15.521 35.8078 15.6112 35.8081 15.7022L35.8081 18.4599C35.8104 18.8394 36.1209 19.1499 36.5004 19.1499ZM30.9804 1.8999C25.1244 1.8999 19.5083 4.22618 15.3675 8.36699C11.2267 12.5078 8.90039 18.1239 8.90039 23.9799C8.90039 29.8359 11.2267 35.452 15.3675 39.5928C19.5083 43.7336 25.1244 46.0599 30.9804 46.0599C33.88 46.0599 36.7512 45.4888 39.43 44.3792C42.1089 43.2695 44.543 41.6431 46.5933 39.5928C48.6436 37.5425 50.27 35.1084 51.3797 32.4296C52.4893 29.7507 53.0604 26.8795 53.0604 23.9799C53.0604 21.0803 52.4893 18.2091 51.3797 15.5303C50.27 12.8514 48.6436 10.4173 46.5933 8.36699C44.543 6.31667 42.1089 4.69027 39.43 3.58064C36.7512 2.47102 33.88 1.8999 30.9804 1.8999ZM42.4804 32.9246C42.4804 34.3299 41.3304 35.4799 39.9251 35.4799L22.0357 35.4799C20.6304 35.4799 19.4804 34.3299 19.4804 32.9246L19.4804 15.0352C19.4804 13.6299 20.6304 12.4799 22.0357 12.4799L39.9251 12.4799C41.3304 12.4799 42.4804 13.6299 42.4804 15.0352L42.4804 32.9246Z" fill="url(#paint_linear_11)" fill-rule="nonzero" />
	</g>
</svg>
