<svg viewBox="0 0 63.8008 63.8" xmlns="http://www.w3.org/2000/svg" xmlns:xlink="http://www.w3.org/1999/xlink" width="63.800781" height="63.800049" fill="none" customFrame="#000000">
	<defs>
		<g id="pixso_custom_effect_36">
			<effect x="0.000000" y="4.000000" visibility="visible" fill="rgb(255,255,255)" fill-opacity="0.449999988" effectType="innerShadow" stdDeviation="5.80000019" radius="0" />
			<effect x="0.000000" y="7.000000" visibility="visible" fill="rgb(0,0,0)" fill-opacity="0.25" effectType="dropShadow" stdDeviation="8.89999962" radius="0" />
		</g>
		<filter id="filter_36" width="63.800781" height="63.800049" x="0.000000" y="0.000000" filterUnits="userSpaceOnUse" customEffect="url(#pixso_custom_effect_36)" color-interpolation-filters="sRGB">
			<feFlood flood-opacity="0" result="BackgroundImageFix" />
			<feOffset dx="0.000000" dy="7.000000" in="SourceAlpha" />
			<feGaussianBlur stdDeviation="2.96666646" />
			<feColorMatrix type="matrix" values="0 0 0 0 0 0 0 0 0 0 0 0 0 0 0 0 0 0 0.25 0 " />
			<feBlend result="effect_dropShadow_1" in2="BackgroundImageFix" mode="normal" />
			<feBlend result="shape" in="SourceGraphic" in2="effect_dropShadow_1" mode="normal" />
			<feOffset dx="0.000000" dy="4.000000" in="SourceAlpha" />
			<feGaussianBlur stdDeviation="1.9333334" />
			<feComposite k2="-1" k3="1" in2="SourceAlpha" operator="arithmetic" />
			<feColorMatrix type="matrix" values="0 0 0 0 1 0 0 0 0 1 0 0 0 0 1 0 0 0 0.45 0 " />
			<feBlend result="effect_innerShadow_2" in2="shape" mode="normal" />
		</filter>
		<linearGradient id="paint_linear_13" x1="32.6607208" x2="32.6607208" y1="-7.44372559" y2="42.8687706" gradientUnits="userSpaceOnUse">
			<stop stop-color="rgb(70.6154,242.708,255)" offset="0" stop-opacity="1" />
			<stop stop-color="rgb(0,180.412,208.168)" offset="0.831730783" stop-opacity="1" />
		</linearGradient>
	</defs>
	<g filter="url(#filter_36)">
		<path id="Subtract" d="M31.9004 1.90002C44.6029 1.90002 54.9004 12.1975 54.9004 24.9C54.9004 37.6026 44.6029 47.9 31.9004 47.9C19.1978 47.9 8.90039 37.6026 8.90039 24.9C8.90039 12.1975 19.1978 1.90002 31.9004 1.90002ZM30.4863 18.0621C29.503 18.0621 28.5121 18.1021 27.9639 18.3756C27.7439 18.4813 27.572 18.6601 27.4912 18.777C27.7933 18.8342 28.2935 18.9914 28.5869 19.3942C28.9965 19.9556 28.998 21.1154 28.998 21.2321C29.0353 21.8214 29.1844 24.6816 28.3838 25.1217C28.284 25.1787 28.1706 25.2088 28.0557 25.2086C27.4428 25.2083 26.6757 24.3167 25.4277 22.1266C24.6571 20.7804 24.1875 19.5818 24.0605 19.2819C23.9512 19.0209 23.7942 18.7303 23.3135 18.7301L19.7246 18.7301C19.327 18.7303 18.9596 18.9635 19.1348 19.3922C19.1621 19.4506 21.9786 26.0798 25.1152 29.3844C27.6751 32.0835 30.5627 32.277 31.1172 32.277L32.7441 32.277C33.0437 32.277 33.4715 31.9692 33.4717 31.4274C33.4717 29.696 34.0506 29.0454 34.5068 28.901C34.5789 28.8773 34.6546 28.8649 34.7305 28.8639C35.3334 28.8639 35.9294 29.5576 36.6182 30.3571C37.0793 30.8952 37.5557 31.4455 38.0342 31.7799C38.6607 32.2125 39.1754 32.277 39.4229 32.277L42.9766 32.277C43.1697 32.2631 43.7376 32.1002 43.9053 31.776C44.0052 31.5804 43.954 31.3129 43.752 30.9742C43.7475 30.9585 43.7397 30.9441 43.7295 30.9313C43.2322 30.0125 41.2217 28.027 41.2217 28.027C39.3718 26.2865 39.3725 26.171 41.1191 23.8785C41.369 23.5504 41.6532 23.1746 41.9775 22.7408C43.9046 20.135 44.0268 19.2731 43.9248 18.9908C43.8639 18.8168 43.5518 18.7477 43.0918 18.7477L38.8711 18.7477C38.7691 18.7465 38.6678 18.7701 38.5771 18.817C38.4507 18.8916 38.3465 19.0761 38.3115 19.1422C38.2705 19.2603 37.6741 20.8312 36.9033 22.1627C35.1469 25.1772 34.4986 25.1774 34.2822 25.1774C34.1869 25.1781 34.0933 25.1512 34.0127 25.1002C33.3886 24.6912 33.4197 23.6951 33.4434 22.8112C33.4434 22.6534 33.4492 22.4981 33.4492 22.359C33.4492 21.7065 33.4703 21.152 33.4902 20.6598C33.5586 18.9367 33.5434 18.4303 32.7627 18.2438C32.3749 18.1456 32.0988 18.0771 31.0322 18.0621L30.4863 18.0621Z" fill="url(#paint_linear_13)" fill-rule="nonzero" />
	</g>
</svg>
